<svg width="205" height="219" viewBox="0 0 205 219" fill="none" xmlns="http://www.w3.org/2000/svg">
<path d="M205 100C205 155.228 105 260.5 105 200C105 139.5 5 155.228 5 100C5 44.7715 49.7715 0 105 0C160.228 0 205 44.7715 205 100Z" fill="#3481B9"/>
<path d="M76.9618 102.784C76.9618 103.968 76.6898 105.12 76.1458 106.24C75.6338 107.392 74.7858 108.4 73.6018 109.264C72.4178 110.16 70.8658 110.864 68.9458 111.376C67.0258 111.92 64.6738 112.192 61.8898 112.192C56.0658 112.192 51.6498 110.768 48.6418 107.92C45.6658 105.104 44.1778 100.864 44.1778 95.2C44.1778 93.376 44.3058 91.92 44.5618 90.832C44.8178 89.712 45.1858 88.864 45.6658 88.288C46.1458 87.712 46.7218 87.328 47.3938 87.136C48.0658 86.944 48.8178 86.848 49.6498 86.848C50.2258 86.848 50.8178 86.896 51.4258 86.992C52.0658 87.088 52.6098 87.216 53.0578 87.376C53.0578 87.696 53.0418 88.128 53.0098 88.672C53.0098 89.216 52.9938 89.792 52.9618 90.4C52.9618 91.008 52.9618 91.6 52.9618 92.176C52.9618 92.72 52.9618 93.168 52.9618 93.52C52.9618 95.76 53.1698 97.616 53.5858 99.088C54.0018 100.56 54.6098 101.728 55.4098 102.592C56.2098 103.456 57.1858 104.048 58.3378 104.368C59.4898 104.72 60.8178 104.896 62.3218 104.896C64.2418 104.896 65.7458 104.56 66.8338 103.888C67.9538 103.216 68.5138 102.128 68.5138 100.624C68.5138 100.144 68.4338 99.712 68.2738 99.328C68.1138 98.912 67.8898 98.528 67.6018 98.176C67.3458 97.824 67.0418 97.504 66.6898 97.216C66.3378 96.896 65.9698 96.576 65.5858 96.256C65.6498 95.648 65.8098 95.024 66.0658 94.384C66.3538 93.744 66.7058 93.152 67.1218 92.608C67.5378 92.064 68.0178 91.6 68.5618 91.216C69.1058 90.8 69.6978 90.512 70.3378 90.352C71.8418 91.28 73.5378 92 75.4258 92.512C77.3138 93.024 79.3778 93.28 81.6178 93.28H82.3378C82.9778 94.016 83.2978 95.168 83.2978 96.736C83.2978 97.376 83.2018 98 83.0098 98.608C82.8178 99.216 82.6098 99.68 82.3858 100H81.7618C80.9938 100 80.3378 99.984 79.7938 99.952C79.2818 99.92 78.8338 99.888 78.4498 99.856C78.0658 99.792 77.7138 99.728 77.3938 99.664C77.0738 99.568 76.7538 99.456 76.4338 99.328C76.6258 99.776 76.7538 100.304 76.8178 100.912C76.9138 101.52 76.9618 102.144 76.9618 102.784ZM56.7538 121.936C55.6018 121.936 54.6738 121.584 53.9698 120.88C53.2658 120.176 52.9138 119.312 52.9138 118.288C52.9138 117.2 53.2818 116.304 54.0178 115.6C54.7538 114.928 55.6658 114.592 56.7538 114.592C57.8738 114.592 58.7858 114.928 59.4898 115.6C60.2258 116.304 60.5938 117.2 60.5938 118.288C60.5938 119.312 60.2578 120.176 59.5858 120.88C58.9138 121.584 57.9698 121.936 56.7538 121.936ZM65.8258 121.936C64.6738 121.936 63.7458 121.584 63.0418 120.88C62.3378 120.176 61.9858 119.312 61.9858 118.288C61.9858 117.2 62.3538 116.304 63.0898 115.6C63.8258 114.928 64.7378 114.592 65.8258 114.592C66.9458 114.592 67.8578 114.928 68.5618 115.6C69.2978 116.304 69.6658 117.2 69.6658 118.288C69.6658 119.312 69.3298 120.176 68.6578 120.88C67.9858 121.584 67.0418 121.936 65.8258 121.936ZM80.1216 95.68C80.1216 94.848 80.2336 94.048 80.4576 93.28H83.0976C82.9696 92.64 82.8896 92.016 82.8576 91.408C82.8256 90.8 82.8096 90.208 82.8096 89.632C82.8096 87.488 83.1296 85.664 83.7696 84.16C84.4416 82.656 85.3216 81.44 86.4096 80.512C87.5296 79.552 88.8096 78.864 90.2496 78.448C91.6896 78 93.2096 77.776 94.8096 77.776C96.4736 77.776 98.0096 78.032 99.4176 78.544C100.858 79.024 102.074 79.744 103.066 80.704C104.09 81.632 104.89 82.784 105.466 84.16C106.042 85.504 106.33 87.04 106.33 88.768C106.33 92.576 105.146 95.408 102.778 97.264C100.442 99.088 97.1936 100 93.0336 100H82.1856C81.5776 99.584 81.0816 98.992 80.6976 98.224C80.3136 97.456 80.1216 96.608 80.1216 95.68ZM97.7376 88.672C97.7376 87.2 97.4336 86.192 96.8256 85.648C96.2176 85.072 95.5296 84.784 94.7616 84.784C93.7376 84.784 92.8896 85.168 92.2176 85.936C91.5456 86.704 91.2096 88.08 91.2096 90.064C91.2096 90.672 91.2256 91.232 91.2576 91.744C91.3216 92.256 91.3856 92.784 91.4496 93.328H93.2256C94.6336 93.328 95.7376 92.928 96.5376 92.128C97.3376 91.328 97.7376 90.176 97.7376 88.672ZM94.7616 75.376C93.5776 75.376 92.6176 75.024 91.8816 74.32C91.1776 73.616 90.8256 72.752 90.8256 71.728C90.8256 70.64 91.1936 69.76 91.9296 69.088C92.6976 68.384 93.6416 68.032 94.7616 68.032C95.8816 68.032 96.8096 68.384 97.5456 69.088C98.3136 69.76 98.6976 70.64 98.6976 71.728C98.6976 72.752 98.3456 73.616 97.6416 74.32C96.9376 75.024 95.9776 75.376 94.7616 75.376ZM119.106 87.568C119.106 89.584 119.602 91.04 120.594 91.936C121.618 92.832 122.898 93.28 124.434 93.28H126.402C127.042 94.016 127.362 95.168 127.362 96.736C127.362 97.376 127.25 98.016 127.026 98.656C126.802 99.264 126.562 99.712 126.306 100H124.338C119.762 100 116.338 98.976 114.066 96.928C111.794 94.88 110.658 91.6 110.658 87.088V71.2C111.01 71.136 111.554 71.056 112.29 70.96C113.026 70.864 113.762 70.816 114.498 70.816C115.17 70.816 115.778 70.864 116.322 70.96C116.898 71.056 117.378 71.232 117.762 71.488C118.178 71.744 118.498 72.128 118.722 72.64C118.978 73.12 119.106 73.744 119.106 74.512V87.568ZM125.451 100C124.843 99.584 124.347 98.992 123.963 98.224C123.579 97.456 123.387 96.608 123.387 95.68C123.387 94.848 123.499 94.048 123.723 93.28H125.835C126.603 93.28 127.275 93.28 127.851 93.28C128.459 93.248 128.987 93.184 129.435 93.088C128.187 91.36 127.211 89.888 126.507 88.672C125.803 87.424 125.451 86.432 125.451 85.696C125.451 84.992 125.707 84.192 126.219 83.296C126.763 82.4 127.515 81.552 128.475 80.752C129.435 79.92 130.603 79.232 131.979 78.688C133.387 78.112 134.955 77.824 136.683 77.824C138.603 77.824 140.283 78.096 141.723 78.64C143.195 79.152 144.411 79.856 145.371 80.752C146.363 81.616 147.099 82.64 147.579 83.824C148.091 85.008 148.347 86.24 148.347 87.52C148.347 88.576 148.123 89.632 147.675 90.688C147.259 91.712 146.731 92.576 146.091 93.28H151.227C151.867 94.016 152.187 95.168 152.187 96.736C152.187 97.376 152.091 98 151.899 98.608C151.707 99.216 151.499 99.68 151.275 100H145.659C143.195 100 141.291 99.872 139.947 99.616C138.603 99.36 137.483 99.056 136.587 98.704C135.659 99.024 134.491 99.328 133.083 99.616C131.675 99.872 130.059 100 128.235 100H125.451ZM137.787 92.128C138.331 91.584 138.811 90.976 139.227 90.304C139.675 89.632 139.899 88.88 139.899 88.048C139.899 86.992 139.595 86.208 138.987 85.696C138.411 85.152 137.659 84.88 136.731 84.88C135.963 84.88 135.291 85.072 134.715 85.456C134.171 85.808 133.899 86.144 133.899 86.464C133.899 86.752 134.027 87.152 134.283 87.664C134.571 88.144 134.907 88.656 135.291 89.2C135.675 89.712 136.091 90.24 136.539 90.784C136.987 91.296 137.403 91.744 137.787 92.128ZM152.004 93.28C153.636 93.28 154.9 92.656 155.796 91.408C156.724 90.16 157.188 88.448 157.188 86.272C157.188 84.64 157.156 83.2 157.092 81.952C157.028 80.704 156.964 79.696 156.9 78.928C157.54 78.768 158.196 78.656 158.868 78.592C159.54 78.496 160.148 78.448 160.692 78.448C161.46 78.448 162.148 78.528 162.756 78.688C163.396 78.848 163.94 79.216 164.388 79.792C164.868 80.336 165.22 81.136 165.444 82.192C165.7 83.216 165.828 84.592 165.828 86.32C165.828 90.704 164.692 94.08 162.42 96.448C160.18 98.816 157.06 100 153.06 100H151.14C150.532 99.584 150.036 98.992 149.652 98.224C149.268 97.456 149.076 96.608 149.076 95.68C149.076 94.848 149.188 94.048 149.412 93.28H152.004ZM162.564 75.52C161.412 75.52 160.484 75.168 159.78 74.464C159.076 73.76 158.724 72.896 158.724 71.872C158.724 70.784 159.092 69.904 159.828 69.232C160.564 68.528 161.476 68.176 162.564 68.176C163.684 68.176 164.596 68.528 165.3 69.232C166.036 69.904 166.404 70.784 166.404 71.872C166.404 72.896 166.068 73.76 165.396 74.464C164.724 75.168 163.78 75.52 162.564 75.52ZM153.492 75.52C152.34 75.52 151.412 75.168 150.708 74.464C150.004 73.76 149.652 72.896 149.652 71.872C149.652 70.784 150.02 69.904 150.756 69.232C151.492 68.528 152.404 68.176 153.492 68.176C154.612 68.176 155.524 68.528 156.228 69.232C156.964 69.904 157.332 70.784 157.332 71.872C157.332 72.896 156.996 73.76 156.324 74.464C155.652 75.168 154.708 75.52 153.492 75.52Z" fill="white"/>
</svg>
