<svg width="18" height="18" viewBox="0 0 18 18" fill="none" xmlns="http://www.w3.org/2000/svg">
<path d="M3.07918 13.5805L2.28536 12.9724L2.28536 12.9724L3.07918 13.5805ZM3.95141 11.1283L2.95141 11.116V11.1283H3.95141ZM3.96972 9.64566L4.96972 9.65801V9.64566H3.96972ZM14.9255 13.5925L15.7314 13.0004L15.7314 13.0004L14.9255 13.5925ZM14.0861 11.1283L13.0861 11.1153V11.1283H14.0861ZM14.1044 9.71913L15.1044 9.73212V9.71913H14.1044ZM3.07918 13.5805L3.873 14.1887C4.4062 13.4927 4.95141 12.4346 4.95141 11.1283H3.95141H2.95141C2.95141 11.8684 2.63984 12.5097 2.28536 12.9724L3.07918 13.5805ZM3.95141 11.1283L4.95134 11.1407L4.96965 9.658L3.96972 9.64566L2.9698 9.63331L2.95149 11.116L3.95141 11.1283ZM14.9255 13.5925L15.7314 13.0004C15.3925 12.5391 15.0861 11.8877 15.0861 11.1283H14.0861H13.0861C13.0861 12.4294 13.6069 13.4867 14.1196 14.1845L14.9255 13.5925ZM14.0861 11.1283L15.086 11.1413L15.1043 9.73212L14.1044 9.71913L13.1045 9.70614L13.0862 11.1153L14.0861 11.1283ZM14.1044 9.71913H15.1044C15.1044 6.36362 12.3633 3.65789 9 3.65789V4.65789V5.6579C11.2748 5.6579 13.1044 7.48416 13.1044 9.71913H14.1044ZM14.62 14.2796V15.2796C15.2941 15.2796 15.7122 14.8099 15.8777 14.4244C16.0418 14.042 16.082 13.4777 15.7314 13.0004L14.9255 13.5925L14.1196 14.1845C13.9528 13.9575 13.9964 13.7367 14.0399 13.6354C14.0848 13.5308 14.2582 13.2796 14.62 13.2796V14.2796ZM3.96972 9.64566H4.96972C4.96972 7.45126 6.76612 5.6579 9 5.6579V4.65789V3.65789C5.67759 3.65789 2.96972 6.33072 2.96972 9.64566H3.96972ZM3.38073 14.2796V13.2796C3.75017 13.2796 3.92122 13.5394 3.96282 13.6393C4.00332 13.7366 4.04795 13.9603 3.873 14.1887L3.07918 13.5805L2.28536 12.9724C1.91914 13.4504 1.95644 14.0237 2.11647 14.4081C2.27761 14.7951 2.69507 15.2796 3.38073 15.2796V14.2796ZM14.62 14.2796V13.2796H3.38073V14.2796V15.2796H14.62V14.2796ZM11.4 14.2796H10.4C10.4 14.8818 9.84786 15.5 9 15.5V16.5V17.5C10.8031 17.5 12.4 16.13 12.4 14.2796H11.4ZM9 16.5V15.5C8.15214 15.5 7.6 14.8818 7.6 14.2796H6.6H5.6C5.6 16.13 7.19689 17.5 9 17.5V16.5ZM10.6 3.07895H9.6C9.6 3.38625 9.3439 3.65789 9 3.65789V4.65789V5.6579C10.4234 5.6579 11.6 4.51571 11.6 3.07895H10.6ZM9 4.65789V3.65789C8.6561 3.65789 8.4 3.38625 8.4 3.07895H7.4H6.4C6.4 4.51571 7.57659 5.6579 9 5.6579V4.65789ZM7.4 3.07895H8.4C8.4 2.77165 8.6561 2.5 9 2.5V1.5V0.5C7.57659 0.5 6.4 1.64219 6.4 3.07895H7.4ZM9 1.5V2.5C9.3439 2.5 9.6 2.77165 9.6 3.07895H10.6H11.6C11.6 1.64219 10.4234 0.5 9 0.5V1.5Z" fill="white"/>
</svg>
