<svg width="14" height="16" viewBox="0 0 14 16" fill="none" xmlns="http://www.w3.org/2000/svg">
<path d="M5.25 15.15H3.45C1.95883 15.15 0.75 13.9412 0.75 12.45V3.45C0.75 1.95883 1.95883 0.75 3.45 0.75H9.75C11.2412 0.75 12.45 1.95883 12.45 3.45V5.7M9.3 4.35H3.45M6.6 7.05H3.45M5.25 9.75H3.45M7.95 9.975L8.99252 9.45374C9.75265 9.07367 10.6474 9.07368 11.4075 9.45374L12.45 9.975C12.45 9.975 12.45 11.6175 12.45 12.4837C12.45 13.35 11.6492 13.9347 10.2 14.85C8.75075 13.9347 7.95 13.1625 7.95 12.4837V9.975Z" stroke="#3481B9" stroke-width="1.5" stroke-linecap="round" stroke-linejoin="round"/>
</svg>
