<svg width="15" height="12" viewBox="0 0 15 12" fill="none" xmlns="http://www.w3.org/2000/svg">
<path d="M11.8999 6.7C12.7448 7.33126 13.4999 8.92065 13.4999 9.89996C13.4999 10.2051 13.2774 10.4524 13.0028 10.4524H12.6999M9.49995 4.11251C10.0465 3.79634 10.4142 3.2054 10.4142 2.52857C10.4142 1.85174 10.0465 1.2608 9.49995 0.944627M1.19713 10.4524H9.95515C10.2297 10.4524 10.4523 10.2051 10.4523 9.89996C10.4523 7.98222 8.85015 6.42759 5.57614 6.42759C2.30213 6.42759 0.699951 7.98222 0.699951 9.89996C0.699951 10.2051 0.922546 10.4524 1.19713 10.4524ZM7.40471 2.52857C7.40471 3.53846 6.58603 4.35714 5.57614 4.35714C4.56625 4.35714 3.74757 3.53846 3.74757 2.52857C3.74757 1.51868 4.56625 0.699997 5.57614 0.699997C6.58603 0.699997 7.40471 1.51868 7.40471 2.52857Z" stroke="#3481B9" stroke-width="1.4" stroke-linecap="round"/>
</svg>
