<svg width="28" height="28" viewBox="0 0 28 28" fill="none" xmlns="http://www.w3.org/2000/svg">
<path d="M22.5117 5.19701C22.8668 5.4431 23.0531 5.86849 22.9863 6.29388L20.7363 20.9189C20.6836 21.2599 20.4761 21.5587 20.1738 21.7275C19.8715 21.8962 19.5094 21.9173 19.1894 21.7837L14.9847 20.0365L12.5765 22.6415C12.2636 22.9826 11.7715 23.0951 11.339 22.9263C10.9066 22.7576 10.6254 22.3392 10.6254 21.8751V18.9361C10.6254 18.7954 10.6781 18.6619 10.773 18.5564L16.6652 12.1298C16.8691 11.9083 16.8621 11.5673 16.6511 11.3564C16.4402 11.1454 16.0992 11.1314 15.8777 11.3318L8.72693 17.6845L5.62263 16.1306C5.24998 15.9443 5.01091 15.5716 5.00037 15.1568C4.98982 14.7419 5.20779 14.3552 5.56638 14.1478L21.3164 5.14779C21.6926 4.93334 22.1566 4.95443 22.5117 5.19701Z" fill="#108B22"/>
</svg>
