<svg width="15" height="15" viewBox="0 0 15 15" fill="none" xmlns="http://www.w3.org/2000/svg">
<path d="M10.3501 7.15H3.95M10.3501 7.15C12.1174 7.15 13.5501 5.71731 13.5501 3.95C13.5501 2.18269 12.1174 0.75 10.3501 0.75H3.95C2.18265 0.75 0.749943 2.18275 0.75 3.9501C0.750057 5.71737 2.18273 7.15 3.95 7.15M10.3501 7.15C12.1174 7.15 13.5501 8.58269 13.5501 10.35C13.5501 12.1173 12.1174 13.55 10.3501 13.55H3.95C2.18273 13.55 0.750057 12.1174 0.75 10.3501C0.749943 8.58275 2.18265 7.15 3.95 7.15M10.7499 3.95H6.7499M10.7499 10.35H6.7499M3.5499 10.4102V10.35M3.5499 3.95V3.88984" stroke="#3481B9" stroke-width="1.5" stroke-linecap="round" stroke-linejoin="round"/>
</svg>
